<svg xmlns="http://www.w3.org/2000/svg" viewBox="0 0 96 96"><defs><linearGradient id="gic_tab_home_filled" x1="0" y1="0" x2=".9" y2="1"><stop offset="0" stop-color="#3F8EE8"/><stop offset=".52" stop-color="#2C74D2"/><stop offset="1" stop-color="#164891"/></linearGradient><radialGradient id="ric_tab_home_filled" cx=".28" cy=".18" r=".95"><stop offset="0" stop-color="#FFFFFF" stop-opacity=".34"/><stop offset=".55" stop-color="#FFFFFF" stop-opacity="0"/></radialGradient><linearGradient id="sic_tab_home_filled" x1="0" y1="0" x2="0" y2="1"><stop offset="0" stop-color="#FFFFFF" stop-opacity=".26"/><stop offset="1" stop-color="#FFFFFF" stop-opacity="0"/></linearGradient><clipPath id="cic_tab_home_filled"><rect x="4" y="4" width="88" height="88" rx="24"/></clipPath></defs><rect x="4" y="4" width="88" height="88" rx="24" fill="url(#gic_tab_home_filled)"/><g clip-path="url(#cic_tab_home_filled)"><rect x="4" y="4" width="88" height="88" fill="url(#ric_tab_home_filled)"/><rect x="-26" y="-40" width="152" height="66" rx="33" transform="rotate(-19 48 8)" fill="url(#sic_tab_home_filled)"/><ellipse cx="48" cy="102" rx="58" ry="30" fill="#000000" opacity=".10"/><rect x="6" y="6" width="84" height="84" rx="22" fill="none" stroke="#FFFFFF" stroke-opacity=".16" stroke-width="3"/></g><g transform="translate(14.26 14.96) scale(2.920)" fill="#000" stroke="#000" opacity=".14"><path d="M13.45 2.53c-.84-.7-2.06-.7-2.9 0L3.8 8.23c-.5.43-.8 1.05-.8 1.72v9.3c0 .97.78 1.75 1.75 1.75h3c.97 0 1.75-.78 1.75-1.75v-4c0-.68.54-1.23 1.22-1.25h2.56c.68.02 1.22.57 1.22 1.25v4c0 .97.78 1.75 1.75 1.75h3c.97 0 1.75-.78 1.75-1.75v-9.3c0-.67-.3-1.3-.8-1.72z"/></g><g transform="translate(12.96 12.96) scale(2.920)" fill="#FFF" stroke="none"><path d="M13.45 2.53c-.84-.7-2.06-.7-2.9 0L3.8 8.23c-.5.43-.8 1.05-.8 1.72v9.3c0 .97.78 1.75 1.75 1.75h3c.97 0 1.75-.78 1.75-1.75v-4c0-.68.54-1.23 1.22-1.25h2.56c.68.02 1.22.57 1.22 1.25v4c0 .97.78 1.75 1.75 1.75h3c.97 0 1.75-.78 1.75-1.75v-9.3c0-.67-.3-1.3-.8-1.72z"/></g></svg>