<svg xmlns="http://www.w3.org/2000/svg" viewBox="0 0 96 96"><defs><linearGradient id="gic_ban" x1="0" y1="0" x2=".9" y2="1"><stop offset="0" stop-color="#6C8FE8"/><stop offset=".52" stop-color="#5376D4"/><stop offset="1" stop-color="#2F4B94"/></linearGradient><radialGradient id="ric_ban" cx=".28" cy=".18" r=".95"><stop offset="0" stop-color="#FFFFFF" stop-opacity=".34"/><stop offset=".55" stop-color="#FFFFFF" stop-opacity="0"/></radialGradient><linearGradient id="sic_ban" x1="0" y1="0" x2="0" y2="1"><stop offset="0" stop-color="#FFFFFF" stop-opacity=".26"/><stop offset="1" stop-color="#FFFFFF" stop-opacity="0"/></linearGradient><clipPath id="cic_ban"><rect x="4" y="4" width="88" height="88" rx="24"/></clipPath></defs><rect x="4" y="4" width="88" height="88" rx="24" fill="url(#gic_ban)"/><g clip-path="url(#cic_ban)"><rect x="4" y="4" width="88" height="88" fill="url(#ric_ban)"/><rect x="-26" y="-40" width="152" height="66" rx="33" transform="rotate(-19 48 8)" fill="url(#sic_ban)"/><ellipse cx="48" cy="102" rx="58" ry="30" fill="#000000" opacity=".10"/><rect x="6" y="6" width="84" height="84" rx="22" fill="none" stroke="#FFFFFF" stroke-opacity=".16" stroke-width="3"/></g><g transform="translate(14.26 14.96) scale(2.920)" fill="#000" stroke="#000" opacity=".14"><g fill="none" stroke="#000" stroke-width="1.5" stroke-linecap="round" stroke-linejoin="round">
  <path d="m15 9-6 6" />
  <path d="M2.586 16.726A2 2 0 0 1 2 15.312V8.688a2 2 0 0 1 .586-1.414l4.688-4.688A2 2 0 0 1 8.688 2h6.624a2 2 0 0 1 1.414.586l4.688 4.688A2 2 0 0 1 22 8.688v6.624a2 2 0 0 1-.586 1.414l-4.688 4.688a2 2 0 0 1-1.414.586H8.688a2 2 0 0 1-1.414-.586z" />
  <path d="m9 9 6 6" />
</g></g><g transform="translate(12.96 12.96) scale(2.920)" fill="#FFF" stroke="none"><g fill="none" stroke="#FFF" stroke-width="1.5" stroke-linecap="round" stroke-linejoin="round">
  <path d="m15 9-6 6" />
  <path d="M2.586 16.726A2 2 0 0 1 2 15.312V8.688a2 2 0 0 1 .586-1.414l4.688-4.688A2 2 0 0 1 8.688 2h6.624a2 2 0 0 1 1.414.586l4.688 4.688A2 2 0 0 1 22 8.688v6.624a2 2 0 0 1-.586 1.414l-4.688 4.688a2 2 0 0 1-1.414.586H8.688a2 2 0 0 1-1.414-.586z" />
  <path d="m9 9 6 6" />
</g></g></svg>