<svg xmlns="http://www.w3.org/2000/svg" viewBox="0 0 96 96"><defs><linearGradient id="gic_calendar" x1="0" y1="0" x2=".9" y2="1"><stop offset="0" stop-color="#5B8DEF"/><stop offset=".52" stop-color="#4875E1"/><stop offset="1" stop-color="#2C4BA2"/></linearGradient><radialGradient id="ric_calendar" cx=".28" cy=".18" r=".95"><stop offset="0" stop-color="#FFFFFF" stop-opacity=".34"/><stop offset=".55" stop-color="#FFFFFF" stop-opacity="0"/></radialGradient><linearGradient id="sic_calendar" x1="0" y1="0" x2="0" y2="1"><stop offset="0" stop-color="#FFFFFF" stop-opacity=".26"/><stop offset="1" stop-color="#FFFFFF" stop-opacity="0"/></linearGradient><clipPath id="cic_calendar"><rect x="4" y="4" width="88" height="88" rx="24"/></clipPath></defs><rect x="4" y="4" width="88" height="88" rx="24" fill="url(#gic_calendar)"/><g clip-path="url(#cic_calendar)"><rect x="4" y="4" width="88" height="88" fill="url(#ric_calendar)"/><rect x="-26" y="-40" width="152" height="66" rx="33" transform="rotate(-19 48 8)" fill="url(#sic_calendar)"/><ellipse cx="48" cy="102" rx="58" ry="30" fill="#000000" opacity=".10"/><rect x="6" y="6" width="84" height="84" rx="22" fill="none" stroke="#FFFFFF" stroke-opacity=".16" stroke-width="3"/></g><g transform="translate(14.26 14.96) scale(2.920)" fill="#000" stroke="#000" opacity=".14"><path d="M17.75 3C19.55 3 21 4.46 21 6.25v11.5c0 1.8-1.46 3.25-3.25 3.25H6.25A3.25 3.25 0 0 1 3 17.75V6.25C3 4.45 4.46 3 6.25 3zm1.75 5.5h-15v9.25c0 .97.78 1.75 1.75 1.75h11.5c.97 0 1.75-.78 1.75-1.75zm-11.75 6a1.25 1.25 0 1 1 0 2.5 1.25 1.25 0 0 1 0-2.5m4.25 0a1.25 1.25 0 1 1 0 2.5 1.25 1.25 0 0 1 0-2.5m-4.25-4a1.25 1.25 0 1 1 0 2.5 1.25 1.25 0 0 1 0-2.5m4.25 0a1.25 1.25 0 1 1 0 2.5 1.25 1.25 0 0 1 0-2.5m4.25 0a1.25 1.25 0 1 1 0 2.5 1.25 1.25 0 0 1 0-2.5m1.5-6H6.25c-.97 0-1.75.78-1.75 1.75V7h15v-.75c0-.97-.78-1.75-1.75-1.75"/></g><g transform="translate(12.96 12.96) scale(2.920)" fill="#FFF" stroke="none"><path d="M17.75 3C19.55 3 21 4.46 21 6.25v11.5c0 1.8-1.46 3.25-3.25 3.25H6.25A3.25 3.25 0 0 1 3 17.75V6.25C3 4.45 4.46 3 6.25 3zm1.75 5.5h-15v9.25c0 .97.78 1.75 1.75 1.75h11.5c.97 0 1.75-.78 1.75-1.75zm-11.75 6a1.25 1.25 0 1 1 0 2.5 1.25 1.25 0 0 1 0-2.5m4.25 0a1.25 1.25 0 1 1 0 2.5 1.25 1.25 0 0 1 0-2.5m-4.25-4a1.25 1.25 0 1 1 0 2.5 1.25 1.25 0 0 1 0-2.5m4.25 0a1.25 1.25 0 1 1 0 2.5 1.25 1.25 0 0 1 0-2.5m4.25 0a1.25 1.25 0 1 1 0 2.5 1.25 1.25 0 0 1 0-2.5m1.5-6H6.25c-.97 0-1.75.78-1.75 1.75V7h15v-.75c0-.97-.78-1.75-1.75-1.75"/></g></svg>