<svg xmlns="http://www.w3.org/2000/svg" width="96" height="96" viewBox="0 0 96 96"><defs><linearGradient id="g2357c4b" x1="0" y1="0" x2=".9" y2="1"><stop stop-color="#6C8FE8"/><stop offset=".52" stop-color="#3F63C4"/><stop offset="1" stop-color="#3F63C4" stop-opacity=".78"/></linearGradient><radialGradient id="r2357c4b" cx=".28" cy=".18" r=".95"><stop stop-color="#fff" stop-opacity=".34"/><stop offset=".55" stop-color="#fff" stop-opacity="0"/></radialGradient><clipPath id="c2357c4b"><rect x="4" y="4" width="88" height="88" rx="24"/></clipPath></defs><rect x="4" y="4" width="88" height="88" rx="24" fill="url(#g2357c4b)"/><g clip-path="url(#c2357c4b)"><rect x="4" y="4" width="88" height="88" fill="url(#r2357c4b)"/><path d="M-20 18 76-8 110 22 10 52z" fill="#fff" opacity=".13" transform="rotate(-19 48 48)"/><ellipse cx="48" cy="102" rx="58" ry="30" fill="#000" opacity=".10"/></g><rect x="6" y="6" width="84" height="84" rx="22" fill="none" stroke="#fff" stroke-opacity=".16" stroke-width="3"/><g transform="translate(14.26 14.96) scale(2.92)" opacity=".14"><g transform="translate(3.2500 2.0000) scale(0.0390625)" fill="#000"><path d="M384 336l-192 0c-8.8 0-16-7.2-16-16l0-256c0-8.8 7.2-16 16-16l140.1 0L400 115.9 400 320c0 8.8-7.2 16-16 16zM192 384l192 0c35.3 0 64-28.7 64-64l0-204.1c0-12.7-5.1-24.9-14.1-33.9L366.1 14.1c-9-9-21.2-14.1-33.9-14.1L192 0c-35.3 0-64 28.7-64 64l0 256c0 35.3 28.7 64 64 64zM64 128c-35.3 0-64 28.7-64 64L0 448c0 35.3 28.7 64 64 64l192 0c35.3 0 64-28.7 64-64l0-32-48 0 0 32c0 8.8-7.2 16-16 16L64 464c-8.8 0-16-7.2-16-16l0-256c0-8.8 7.2-16 16-16l32 0 0-48-32 0z"/></g></g><g transform="translate(12.96 12.96) scale(2.92)"><g transform="translate(3.2500 2.0000) scale(0.0390625)" fill="#fff"><path d="M384 336l-192 0c-8.8 0-16-7.2-16-16l0-256c0-8.8 7.2-16 16-16l140.1 0L400 115.9 400 320c0 8.8-7.2 16-16 16zM192 384l192 0c35.3 0 64-28.7 64-64l0-204.1c0-12.7-5.1-24.9-14.1-33.9L366.1 14.1c-9-9-21.2-14.1-33.9-14.1L192 0c-35.3 0-64 28.7-64 64l0 256c0 35.3 28.7 64 64 64zM64 128c-35.3 0-64 28.7-64 64L0 448c0 35.3 28.7 64 64 64l192 0c35.3 0 64-28.7 64-64l0-32-48 0 0 32c0 8.8-7.2 16-16 16L64 464c-8.8 0-16-7.2-16-16l0-256c0-8.8 7.2-16 16-16l32 0 0-48-32 0z"/></g></g></svg>