<svg xmlns="http://www.w3.org/2000/svg" viewBox="0 0 96 96"><defs><linearGradient id="gic_edit" x1="0" y1="0" x2=".9" y2="1"><stop offset="0" stop-color="#5B8DEF"/><stop offset=".52" stop-color="#4875E1"/><stop offset="1" stop-color="#2C4BA2"/></linearGradient><radialGradient id="ric_edit" cx=".28" cy=".18" r=".95"><stop offset="0" stop-color="#FFFFFF" stop-opacity=".34"/><stop offset=".55" stop-color="#FFFFFF" stop-opacity="0"/></radialGradient><linearGradient id="sic_edit" x1="0" y1="0" x2="0" y2="1"><stop offset="0" stop-color="#FFFFFF" stop-opacity=".26"/><stop offset="1" stop-color="#FFFFFF" stop-opacity="0"/></linearGradient><clipPath id="cic_edit"><rect x="4" y="4" width="88" height="88" rx="24"/></clipPath></defs><rect x="4" y="4" width="88" height="88" rx="24" fill="url(#gic_edit)"/><g clip-path="url(#cic_edit)"><rect x="4" y="4" width="88" height="88" fill="url(#ric_edit)"/><rect x="-26" y="-40" width="152" height="66" rx="33" transform="rotate(-19 48 8)" fill="url(#sic_edit)"/><ellipse cx="48" cy="102" rx="58" ry="30" fill="#000000" opacity=".10"/><rect x="6" y="6" width="84" height="84" rx="22" fill="none" stroke="#FFFFFF" stroke-opacity=".16" stroke-width="3"/></g><g transform="translate(14.26 14.96) scale(2.920)" fill="#000" stroke="#000" opacity=".14"><path d="M20.95 3.05a3.6 3.6 0 0 0-5.06 0L3.94 15c-.4.4-.7.92-.82 1.48l-1.1 4.6a.75.75 0 0 0 .9.9l4.6-1.1A3 3 0 0 0 9 20.07L20.95 8.11a3.6 3.6 0 0 0 0-5.06m-4 1.06a2.08 2.08 0 1 1 2.94 2.94l-.89.89L16.06 5zM15 6.06 17.94 9l-10 10a1.6 1.6 0 0 1-.76.43l-3.42.8.82-3.4q.1-.45.42-.77z"/></g><g transform="translate(12.96 12.96) scale(2.920)" fill="#FFF" stroke="none"><path d="M20.95 3.05a3.6 3.6 0 0 0-5.06 0L3.94 15c-.4.4-.7.92-.82 1.48l-1.1 4.6a.75.75 0 0 0 .9.9l4.6-1.1A3 3 0 0 0 9 20.07L20.95 8.11a3.6 3.6 0 0 0 0-5.06m-4 1.06a2.08 2.08 0 1 1 2.94 2.94l-.89.89L16.06 5zM15 6.06 17.94 9l-10 10a1.6 1.6 0 0 1-.76.43l-3.42.8.82-3.4q.1-.45.42-.77z"/></g></svg>