<svg xmlns="http://www.w3.org/2000/svg" width="96" height="96" viewBox="0 0 96 96"><defs><linearGradient id="g204c2f0" x1="0" y1="0" x2=".9" y2="1"><stop stop-color="#38A3E8"/><stop offset=".52" stop-color="#1773C6"/><stop offset="1" stop-color="#1773C6" stop-opacity=".78"/></linearGradient><radialGradient id="r204c2f0" cx=".28" cy=".18" r=".95"><stop stop-color="#fff" stop-opacity=".34"/><stop offset=".55" stop-color="#fff" stop-opacity="0"/></radialGradient><clipPath id="c204c2f0"><rect x="4" y="4" width="88" height="88" rx="24"/></clipPath></defs><rect x="4" y="4" width="88" height="88" rx="24" fill="url(#g204c2f0)"/><g clip-path="url(#c204c2f0)"><rect x="4" y="4" width="88" height="88" fill="url(#r204c2f0)"/><path d="M-20 18 76-8 110 22 10 52z" fill="#fff" opacity=".13" transform="rotate(-19 48 48)"/><ellipse cx="48" cy="102" rx="58" ry="30" fill="#000" opacity=".10"/></g><rect x="6" y="6" width="84" height="84" rx="22" fill="none" stroke="#fff" stroke-opacity=".16" stroke-width="3"/><g transform="translate(14.26 14.96) scale(2.92)" opacity=".14"><g transform="translate(3.2500 2.0000) scale(0.0390625)" fill="#000"><path d="M128 0c13.3 0 24 10.7 24 24l0 40 144 0 0-40c0-13.3 10.7-24 24-24s24 10.7 24 24l0 40 40 0c35.3 0 64 28.7 64 64l0 16 0 48 0 256c0 35.3-28.7 64-64 64L64 512c-35.3 0-64-28.7-64-64L0 192l0-48 0-16C0 92.7 28.7 64 64 64l40 0 0-40c0-13.3 10.7-24 24-24zM400 192L48 192l0 256c0 8.8 7.2 16 16 16l320 0c8.8 0 16-7.2 16-16l0-256zM329 297L217 409c-9.4 9.4-24.6 9.4-33.9 0l-64-64c-9.4-9.4-9.4-24.6 0-33.9s24.6-9.4 33.9 0l47 47 95-95c9.4-9.4 24.6-9.4 33.9 0s9.4 24.6 0 33.9z"/></g></g><g transform="translate(12.96 12.96) scale(2.92)"><g transform="translate(3.2500 2.0000) scale(0.0390625)" fill="#fff"><path d="M128 0c13.3 0 24 10.7 24 24l0 40 144 0 0-40c0-13.3 10.7-24 24-24s24 10.7 24 24l0 40 40 0c35.3 0 64 28.7 64 64l0 16 0 48 0 256c0 35.3-28.7 64-64 64L64 512c-35.3 0-64-28.7-64-64L0 192l0-48 0-16C0 92.7 28.7 64 64 64l40 0 0-40c0-13.3 10.7-24 24-24zM400 192L48 192l0 256c0 8.8 7.2 16 16 16l320 0c8.8 0 16-7.2 16-16l0-256zM329 297L217 409c-9.4 9.4-24.6 9.4-33.9 0l-64-64c-9.4-9.4-9.4-24.6 0-33.9s24.6-9.4 33.9 0l47 47 95-95c9.4-9.4 24.6-9.4 33.9 0s9.4 24.6 0 33.9z"/></g></g></svg>