<svg xmlns="http://www.w3.org/2000/svg" width="96" height="96" viewBox="0 0 96 96"><defs><linearGradient id="g5818657" x1="0" y1="0" x2=".9" y2="1"><stop stop-color="#3F8EE8"/><stop offset=".52" stop-color="#1E5FC0"/><stop offset="1" stop-color="#1E5FC0" stop-opacity=".78"/></linearGradient><radialGradient id="r5818657" cx=".28" cy=".18" r=".95"><stop stop-color="#fff" stop-opacity=".34"/><stop offset=".55" stop-color="#fff" stop-opacity="0"/></radialGradient><clipPath id="c5818657"><rect x="4" y="4" width="88" height="88" rx="24"/></clipPath></defs><rect x="4" y="4" width="88" height="88" rx="24" fill="url(#g5818657)"/><g clip-path="url(#c5818657)"><rect x="4" y="4" width="88" height="88" fill="url(#r5818657)"/><path d="M-20 18 76-8 110 22 10 52z" fill="#fff" opacity=".13" transform="rotate(-19 48 48)"/><ellipse cx="48" cy="102" rx="58" ry="30" fill="#000" opacity=".10"/></g><rect x="6" y="6" width="84" height="84" rx="22" fill="none" stroke="#fff" stroke-opacity=".16" stroke-width="3"/><g transform="translate(14.26 14.96) scale(2.92)"><g fill="none" stroke="#000" stroke-width="1.5" stroke-linecap="round" stroke-linejoin="round" opacity=".14"><circle cx="6" cy="6" r="3" /><path d="M8.12 8.12 12 12" /><path d="M20 4 8.12 15.88" /><circle cx="6" cy="18" r="3" /><path d="M14.8 14.8 20 20" /></g></g><g transform="translate(12.96 12.96) scale(2.92)"><g fill="none" stroke="#FFF" stroke-width="1.5" stroke-linecap="round" stroke-linejoin="round"><circle cx="6" cy="6" r="3" /><path d="M8.12 8.12 12 12" /><path d="M20 4 8.12 15.88" /><circle cx="6" cy="18" r="3" /><path d="M14.8 14.8 20 20" /></g></g></svg>