<svg xmlns="http://www.w3.org/2000/svg" width="96" height="96" viewBox="0 0 96 96"><defs><linearGradient id="g9e3d134" x1="0" y1="0" x2=".9" y2="1"><stop stop-color="#9C6BFF"/><stop offset=".52" stop-color="#6432CE"/><stop offset="1" stop-color="#6432CE" stop-opacity=".78"/></linearGradient><radialGradient id="r9e3d134" cx=".28" cy=".18" r=".95"><stop stop-color="#fff" stop-opacity=".34"/><stop offset=".55" stop-color="#fff" stop-opacity="0"/></radialGradient><clipPath id="c9e3d134"><rect x="4" y="4" width="88" height="88" rx="24"/></clipPath></defs><rect x="4" y="4" width="88" height="88" rx="24" fill="url(#g9e3d134)"/><g clip-path="url(#c9e3d134)"><rect x="4" y="4" width="88" height="88" fill="url(#r9e3d134)"/><path d="M-20 18 76-8 110 22 10 52z" fill="#fff" opacity=".13" transform="rotate(-19 48 48)"/><ellipse cx="48" cy="102" rx="58" ry="30" fill="#000" opacity=".10"/></g><rect x="6" y="6" width="84" height="84" rx="22" fill="none" stroke="#fff" stroke-opacity=".16" stroke-width="3"/><g transform="translate(14.26 14.96) scale(0.073)" fill="#000" stroke="#000" opacity=".14"><g transform="translate(0 960)"><path d="M400-80v-280h-80v-240q0-33 23.5-56.5T400-680h160q33 0 56.5 23.5T640-600v240h-80v280H400Zm80-640q-33 0-56.5-23.5T400-800q0-33 23.5-56.5T480-880q33 0 56.5 23.5T560-800q0 33-23.5 56.5T480-720Z"/></g></g><g transform="translate(12.96 12.96) scale(0.073)" fill="#FFF" stroke="none"><g transform="translate(0 960)"><path d="M400-80v-280h-80v-240q0-33 23.5-56.5T400-680h160q33 0 56.5 23.5T640-600v240h-80v280H400Zm80-640q-33 0-56.5-23.5T400-800q0-33 23.5-56.5T480-880q33 0 56.5 23.5T560-800q0 33-23.5 56.5T480-720Z"/></g></g></svg>