<svg xmlns="http://www.w3.org/2000/svg" viewBox="0 0 1024 1024">
  <defs>
    <linearGradient id="bg" x1="0" y1="0" x2="1" y2="1"><stop offset="0" stop-color="#129C89"/><stop offset=".55" stop-color="#0B6B60"/><stop offset="1" stop-color="#06473F"/></linearGradient>
    <radialGradient id="glow" cx=".3" cy=".16" r=".95">
      <stop offset="0" stop-color="#FFFFFF" stop-opacity=".26"/>
      <stop offset=".5" stop-color="#FFFFFF" stop-opacity=".06"/>
      <stop offset="1" stop-color="#FFFFFF" stop-opacity="0"/>
    </radialGradient>
    <linearGradient id="page" x1="0" y1="0" x2="0" y2="1">
      <stop offset="0" stop-color="#FFFFFF"/>
      <stop offset="1" stop-color="#D4E8FA"/>
    </linearGradient>
    <linearGradient id="block" x1="0" y1="0" x2="0" y2="1">
      <stop offset="0" stop-color="#DCEBFB"/>
      <stop offset="1" stop-color="#AECBF0"/>
    </linearGradient>
    <linearGradient id="skin" x1="0" y1="0" x2="0" y2="1">
      <stop offset="0" stop-color="#F7FBFF"/>
      <stop offset="1" stop-color="#DCEAFB"/>
    </linearGradient>
    <linearGradient id="bell" x1="0" y1="0" x2=".6" y2="1">
      <stop offset="0" stop-color="#FFC04D"/>
      <stop offset="1" stop-color="#F08F1E"/>
    </linearGradient>
    <linearGradient id="heart" x1="0" y1="0" x2=".6" y2="1">
      <stop offset="0" stop-color="#F76B84"/>
      <stop offset="1" stop-color="#D93025"/>
    </linearGradient></defs>
  
  <rect width="1024" height="1024" fill="url(#bg)"/>
  <rect width="1024" height="1024" fill="url(#glow)"/>
  <path d="M0 0L1024 210L1024 0Z" fill="#FFFFFF" opacity=".05"/>

  <path d="M492 152a20 20 0 1 1 40 0" stroke="url(#bell)" stroke-width="14"
        stroke-linecap="round" fill="none"/>
  <circle cx="512" cy="180" r="9" fill="url(#bell)"/>
  <path d="M468 274C468 218 484 198 512 198C540 198 556 218 556 274L556 284C556 296 546 302 532 302L492 302C478 302 468 296 468 284Z"
        fill="url(#bell)"/>
  <ellipse cx="494" cy="236" rx="9" ry="15" fill="#FFFFFF" opacity=".38"/>
  <circle cx="512" cy="316" r="9" fill="url(#bell)"/>

  <ellipse cx="512" cy="826" rx="330" ry="22" fill="#053B72" opacity=".30"/>
  <!-- 书体厚度（书脊块：底部圆角 + 层叠书页边线） -->
  <path d="M236 700L236 778Q236 810 268 810L756 810Q788 810 788 778L788 700Z" fill="url(#block)"/>
  <path d="M250 722H774M250 744H774M250 766H774M250 788H774"
        stroke="#AECBF0" stroke-width="12" stroke-linecap="round" opacity=".8"/>
  <!-- 翻开的两页（坐落在书体之上） -->
  <path d="M512 400C448 354 344 342 224 342L224 682C344 682 448 698 512 710Z" fill="url(#page)"/>
  <path d="M512 400C576 354 680 342 800 342L800 682C680 682 576 698 512 710Z" fill="url(#page)"/>
  <path d="M512 402L512 710" stroke="#9CC4EA" stroke-width="14" stroke-linecap="round"/>
  <path d="M302 386C384 376 458 382 512 400M722 386C640 376 566 382 512 400"
        stroke="#C9E0F6" stroke-width="10" stroke-linecap="round" fill="none"/>

  <!-- 成人（左）：足部投影 + 身体 -->
  <ellipse cx="344" cy="694" rx="46" ry="10" fill="#7C9FC9" opacity=".30"/>
  <circle cx="344" cy="606" r="44" fill="url(#skin)"/>
  <path d="M290 690C290 668 312 642 344 642C376 642 398 668 398 690Z" fill="url(#skin)"/>
  <!-- 孩子（右）：足部投影 + 身体 -->
  <ellipse cx="676" cy="704" rx="36" ry="8" fill="#7C9FC9" opacity=".30"/>
  <circle cx="676" cy="634" r="32" fill="url(#skin)"/>
  <path d="M640 700C640 678 656 662 676 662C696 662 712 678 712 700Z" fill="url(#skin)"/>
  <!-- 双手（四手）托心 -->
  <path d="M398 664C408 638 420 612 444 592" stroke="url(#skin)" stroke-width="26"
        stroke-linecap="round" fill="none"/>
  <path d="M634 686C624 658 610 630 580 604" stroke="url(#skin)" stroke-width="22"
        stroke-linecap="round" fill="none"/>

  <ellipse cx="512" cy="712" rx="112" ry="20" fill="#7A1020" opacity=".18"/>
  <path d="M512 700C448 646 396 608 396 556C396 512 428 482 462 494C512 506 512 526 512 526C512 526 512 506 562 494C596 482 628 512 628 556C628 608 576 646 512 700Z"
        fill="url(#heart)"/>
  <ellipse cx="474" cy="528" rx="18" ry="11" fill="#FFFFFF" opacity=".35"/>
  <rect x="496" y="536" width="32" height="108" rx="15" fill="#FFFFFF"/>
  <rect x="464" y="572" width="96" height="32" rx="15" fill="#FFFFFF"/>

</svg>